# xmcd
# 
# Track frame offsets:
#     150
#     14368
#     29514
#     39278
#     52939
#     68085
#     83973
# 
# Disc length: 1329
# 
# Revision: 0
# Processed by: cddbd v1.5.2PL0 Copyright (c) Steve Scherf et al.
# Submitted via: fre:ac v1.0.17
# 
DISCID=4e052f07
DTITLE=Lez Batards - les rapports inconnus
DYEAR=2005
DGENRE=Chanson
TTITLE0=La Chanson de prevert
TTITLE1=Il
TTITLE2=Une petite Fille
TTITLE3=Chanson pour L'auvergnat
TTITLE4=LeVent nous portera
TTITLE5=Une Image
TTITLE6=Amsterdam
EXTD=
EXTT0=
EXTT1=
EXTT2=
EXTT3=
EXTT4=
EXTT5=
EXTT6=
PLAYORDER=
